<svg xmlns="http://www.w3.org/2000/svg" xmlns:xlink="http://www.w3.org/1999/xlink" x="0" y="0" baseProfile="tiny" version="1.1" viewBox="0 0 210 210" xml:space="preserve"><g><circle cx="23.027" cy="115.443" r="5.938" fill="#FFF"/><circle cx="48.434" cy="126.284" r="3.531" fill="#FFF"/><circle cx="144.123" cy="117.975" r="2.764" fill="#FFF"/><circle cx="159.934" cy="39.112" r="2.764" fill="#FFF"/><circle cx="146.436" cy="131.787" r="2.764" fill="#FFF"/><circle cx="86.031" cy="104.336" r="2.764" fill="#FFF"/><circle cx="117.861" cy="5.612" r="2.764" fill="#FFF"/><circle cx="73.806" cy="20.886" r="2.764" fill="#FFF"/><circle cx="94.086" cy="65.979" r="2.764" fill="#FFF"/><circle cx="49.626" cy="9.733" r="2.035" fill="#FFF"/><circle cx="181.376" cy="82.408" r="2.035" fill="#FFF"/><circle cx="117.898" cy="41.559" r="2.035" fill="#FFF"/><circle cx="157.316" cy="146.806" r="2.035" fill="#FFF"/><circle cx="98.125" cy="51.897" r="1.409" fill="#FFF"/><circle cx="147.237" cy="151.206" r="1.409" fill="#FFF"/><circle cx="132.585" cy="201.904" r="1.409" fill="#FFF"/><circle cx="95.162" cy="54.55" r="1.409" fill="#FFF"/><circle cx="140.702" cy="42.702" r="1.409" fill="#FFF"/><circle cx="112.99" cy="47.891" r="1.409" fill="#FFF"/><circle cx="98.703" cy="5.385" r="1.409" fill="#FFF"/><circle cx="107.693" cy="39.271" r="1.409" fill="#FFF"/><circle cx="103.193" cy="29.043" r="1.409" fill="#FFF"/><circle cx="162.473" cy="194.348" r="1.409" fill="#FFF"/><line x1="49.626" x2="73.806" y1="9.733" y2="20.886" fill="#FFF" stroke="#FFF" stroke-miterlimit="10"/><line x1="86.031" x2="94.086" y1="104.336" y2="65.979" fill="none" stroke="#FFF" stroke-miterlimit="10"/><line x1="73.806" x2="107.693" y1="20.886" y2="39.271" fill="none" stroke="#FFF" stroke-miterlimit="10"/><line x1="94.086" x2="95.162" y1="65.979" y2="54.55" fill="none" stroke="#FFF" stroke-miterlimit="10"/><line x1="98.125" x2="95.162" y1="51.897" y2="54.55" fill="none" stroke="#FFF" stroke-miterlimit="10"/><line x1="107.693" x2="98.125" y1="39.271" y2="51.897" fill="none" stroke="#FFF" stroke-miterlimit="10"/><line x1="103.193" x2="107.693" y1="29.043" y2="39.271" fill="none" stroke="#FFF" stroke-miterlimit="10"/><line x1="98.703" x2="103.193" y1="5.385" y2="29.043" fill="none" stroke="#FFF" stroke-miterlimit="10"/><line x1="117.861" x2="98.703" y1="5.612" y2="5.385" fill="none" stroke="#FFF" stroke-miterlimit="10"/><line x1="117.898" x2="117.861" y1="41.559" y2="5.612" fill="none" stroke="#FFF" stroke-miterlimit="10"/><line x1="181.376" x2="159.934" y1="82.408" y2="39.112" fill="none" stroke="#FFF" stroke-miterlimit="10"/><line x1="140.702" x2="159.934" y1="42.702" y2="39.112" fill="none" stroke="#FFF" stroke-miterlimit="10"/><line x1="117.898" x2="140.702" y1="41.559" y2="42.702" fill="none" stroke="#FFF" stroke-miterlimit="10"/><line x1="112.99" x2="117.898" y1="47.891" y2="41.559" fill="none" stroke="#FFF" stroke-miterlimit="10"/><line x1="94.086" x2="112.99" y1="65.979" y2="47.891" fill="none" stroke="#FFF" stroke-miterlimit="10"/><line x1="23.027" x2="48.434" y1="115.443" y2="126.284" fill="none" stroke="#FFF" stroke-miterlimit="10"/><line x1="86.031" x2="48.434" y1="104.336" y2="126.284" fill="none" stroke="#FFF" stroke-miterlimit="10"/><line x1="132.585" x2="147.237" y1="201.904" y2="151.206" fill="none" stroke="#FFF" stroke-miterlimit="10"/><line x1="162.473" x2="156.957" y1="194.348" y2="147.201" fill="none" stroke="#FFF" stroke-miterlimit="10"/><line x1="146.436" x2="157.316" y1="131.787" y2="146.806" fill="none" stroke="#FFF" stroke-miterlimit="10"/><line x1="147.237" x2="146.436" y1="151.206" y2="131.787" fill="none" stroke="#FFF" stroke-miterlimit="10"/><line x1="144.123" x2="146.436" y1="117.975" y2="131.787" fill="none" stroke="#FFF" stroke-miterlimit="10"/><line x1="86.031" x2="144.123" y1="104.336" y2="117.975" fill="none" stroke="#FFF" stroke-miterlimit="10"/><line x1="94.086" x2="144.123" y1="65.979" y2="117.975" fill="none" stroke="#FFF" stroke-miterlimit="10"/></g></svg>